<svg xmlns="http://www.w3.org/2000/svg" viewBox="0 0 86.7 85.83"><defs><style>.cls-1,.cls-5{fill:none;}.cls-1{stroke:#153b50;stroke-miterlimit:10;stroke-width:3px;}.cls-2{fill:#82d028;}.cls-3{fill:#38b143;}.cls-4{fill:#153b50;}</style></defs><title>LOGO_6</title><g id="Capa_2" data-name="Capa 2"><g id="Capa_1-2" data-name="Capa 1"><path class="cls-1" d="M59.15,23.5a28.46,28.46,0,0,1,9.3,15.69A27.37,27.37,0,0,1,65.85,57c-.5,1-9.3,17.38-26.6,17.28-13.6-.09-24.6-10.28-27.7-21.58-3.5-12.52,2.9-26.34,15.8-33.44a27,27,0,0,1,10.3-3.18C49.35,15.09,57.55,22.1,59.15,23.5Z"/><path class="cls-2" d="M27.77,58a44.91,44.91,0,0,1-1.33-10.56,44.29,44.29,0,0,1,4.22-18.54,51.45,51.45,0,0,0-8.78-7.22A53.54,53.54,0,0,0,1.66,13.94a8.65,8.65,0,0,0-.11,2.48,14.09,14.09,0,0,0,.56,3.77c.78,3.13,1.44,5.17,1.44,5.17C4,26.66,5,29.67,6.43,32.91c2.56,5.82,5.33,12,11.22,17.67A44.16,44.16,0,0,0,27.77,58Z"/><path class="cls-3" d="M40,61.92c-1.74-.35-3.71-.69-5.69-1.27a54.91,54.91,0,0,1-5.69-1.84,51.48,51.48,0,0,1-1.51-8.52,52.46,52.46,0,0,1,.7-14c.35-1.15.7-2.3,1.16-3.57a39.19,39.19,0,0,1,1.51-3.91,49.14,49.14,0,0,1,3.71,4.6A43.11,43.11,0,0,1,38,39.82a32.76,32.76,0,0,1,3,11.4,39.41,39.41,0,0,1-.12,5.64C40.53,58.92,40.3,60.65,40,61.92Z"/><path class="cls-2" d="M30.65,60.82c.9.4,1.9.7,2.9,1.1a29.51,29.51,0,0,0,5.1,1.1,17.6,17.6,0,0,0-2,3.9,21.79,21.79,0,0,0-1.3,5.2S30.85,63.92,30.65,60.82Z"/><path class="cls-3" d="M56.91,67.72a23.09,23.09,0,0,1,.32-5.89,21.47,21.47,0,0,1,3.46-8.2,29.24,29.24,0,0,1,3.35-4,25.71,25.71,0,0,1,2.7-2.42c1.84-1.47,2.7-2.21,3.24-2.1,2.05.42,4,10-.65,16.29a14.41,14.41,0,0,1-5.51,4.52A16.75,16.75,0,0,1,56.91,67.72Z"/><path class="cls-2" d="M92.65,60.72"/><path class="cls-2" d="M61.07,12.19A27.41,27.41,0,0,1,71.9,15.3,28.14,28.14,0,0,1,79,20.68a27.17,27.17,0,0,1,5.63,8.61,61,61,0,0,0-10.41,3.76c-13,6-27.2,18.39-30.39,24-.11.22-.53,1.08-1,1-1.06-.22.74-6.35-1.28-13-.85-2.9-2.44-5.49-5.74-10.65-1.59-2.47-3-4.41-3.93-5.81a37,37,0,0,1,5.74-7.42,30.48,30.48,0,0,1,9-6.45A27.55,27.55,0,0,1,53,12.72,26.07,26.07,0,0,1,61.07,12.19Z"/><path class="cls-1" d="M39.75,39.12c.1.1,3.1-7.5,10.6-11.4s15.2-2.2,15.2-2.5S60,24,53.85,26.32a23,23,0,0,0-5.9,3.4C42.25,33.92,39.65,39,39.75,39.12Z"/><path class="cls-1" d="M26.45,43c.3-.2-7.3-9.9-9.4-12.1a28.67,28.67,0,0,0-2.8-3.3l-.5-.5c-.7-.7-.8-.7-.8-.7s.2.7.3.8a5.83,5.83,0,0,0,1.1,1.5C15.85,30.22,26.05,43.22,26.45,43Z"/><path class="cls-1" d="M40.85,61.82A41.37,41.37,0,0,1,22,55c-8.8-6.1-12.4-14-15.6-21-3.3-7.2-6.6-18.1-3.8-19.9.7-.4,2.2-.1,5.1.7a51.17,51.17,0,0,1,7.6,2.7,54.58,54.58,0,0,1,21.3,18.1,33,33,0,0,1,4.1,8.8A33.61,33.61,0,0,1,40.85,61.82Z"/><path class="cls-4" d="M16.19,29.78a2,2,0,0,0-.6-.57,3.92,3.92,0,0,0-.77-.41c-.28-.11-.58-.21-.87-.3l-.81-.25L13,28.14a3,3,0,0,1-.54-.23l-.24-.16-.07-.05.12.09a.64.64,0,0,0,.31.09h.73a1.49,1.49,0,0,0,1-.86,1.42,1.42,0,0,0,.1-.38,1.46,1.46,0,0,0,0-.17v-.08a1.46,1.46,0,0,0,0-.25l0-.13a1.19,1.19,0,0,0-.08-.2l-.06-.1a1.19,1.19,0,0,0-.24-.27l.26.29s-.13-.06.14.23a3.35,3.35,0,0,1,.31.54,9.36,9.36,0,0,1,.4,1.2,7.21,7.21,0,0,0,.42,1.17A2.58,2.58,0,0,0,16.19,29.78Zm0,0a6,6,0,0,0-1-.64,7.87,7.87,0,0,0-1.17-.45,11.23,11.23,0,0,1-1.18-.43c-.18-.08-.35-.18-.49-.26a2.44,2.44,0,0,1-.63-.6l.25.29a1.52,1.52,0,0,1-.29-.33l-.1-.17a1.66,1.66,0,0,1-.12-.28l0-.15a1.54,1.54,0,0,1,0-.27V26.4a1.55,1.55,0,0,1,0-.17,1.45,1.45,0,0,1,.11-.39,1.51,1.51,0,0,1,1-.87l.45-.11.28.1a2.67,2.67,0,0,1,.58.3l.25.2.06.06c.07.08.18.21.26.32a4.74,4.74,0,0,1,.43.74l-.11-.12a4.16,4.16,0,0,1,.36.91l.28.9a4.86,4.86,0,0,0,.35.81C15.87,29.33,16.05,29.55,16.19,29.78Z"/><path class="cls-1" d="M30.65,65c-1.3-3.3-9.1-23.4,2.5-39.4a37.42,37.42,0,0,1,15.2-12c1.7-.6,13-4.2,24,2.2a29.53,29.53,0,0,1,12.3,14.6,74,74,0,0,0-19.4,8.1,75.76,75.76,0,0,0-27.6,29.2,33.81,33.81,0,0,0-1.2,3.5c-.5,1.9-.4,2.8-.7,2.9C35,74.42,32.15,69,30.65,65Z"/><path class="cls-1" d="M66.85,55.72c.2.1-1.1,3.2-3.5,6.3-2.9,3.7-6.4,5.9-6.5,5.7s2.7-2.4,6.4-7.1C65.55,57.52,66.65,55.62,66.85,55.72Z"/><path class="cls-1" d="M56.65,68.32a22,22,0,0,1,.5-8.6,24.9,24.9,0,0,1,8-12.8c-1.3,1.2-1.5,1.4-1.5,1.4s1.6-1.5,3.4-3.1,2.6-2.3,3-2.3c2.2.3,5.5,11.1.5,18.5C66.15,67.92,57.85,68.22,56.65,68.32Z"/><path class="cls-2" d="M49.65,27.52"/><path class="cls-5" d="M72.17,85.83H14.24c-7.74,0-14-6.73-14-14.94V14.94C.29,6.65,6.57,0,14.24,0H72.17c7.74,0,14,6.73,14,14.94V70.89C86.2,79.18,79.91,85.83,72.17,85.83Z"/></g></g></svg>